<svg xmlns="http://www.w3.org/2000/svg" viewBox="0 0 44.138 44.899">
  <defs>
    <style>
      .cls-1 {
        fill: #d6d9db;
      }

      .cls-2 {
        fill: #d65a07;
      }

      .cls-3 {
        fill: #c1c7c9;
      }

      .cls-4 {
        fill: #f3a912;
      }

      .cls-5 {
        fill: #f89421;
      }

      .cls-6 {
        fill: #e0e3e6;
      }

      .cls-7 {
        fill: #e3584b;
      }

      .cls-8 {
        fill: #d64740;
      }

      .cls-9 {
        fill: #c7cacc;
      }
    </style>
  </defs>
  <g id="digital-marketing" transform="translate(-0.5)">
    <path id="Path_52" data-name="Path 52" class="cls-1" d="M158.731,390.849,156.676,384h-7.61l-2.055,6.849H144.5v1.522h16.742v-1.522Zm0,0" transform="translate(-130.302 -347.472)"/>
    <path id="Path_53" data-name="Path 53" class="cls-2" d="M2.783,64A2.283,2.283,0,0,0,.5,66.283V89.874H44.638V66.283A2.283,2.283,0,0,0,42.355,64Zm0,0" transform="translate(0 -57.912)"/>
    <path id="Path_54" data-name="Path 54" class="cls-1" d="M.5,336v2.283a2.283,2.283,0,0,0,2.283,2.283H42.355a2.283,2.283,0,0,0,2.283-2.283V336Zm0,0" transform="translate(0 -304.038)"/>
    <path id="Path_55" data-name="Path 55" class="cls-3" d="M194.28,386.283,193.6,384h-7.61l-.685,2.283Zm0,0" transform="translate(-167.221 -347.472)"/>
    <path id="Path_56" data-name="Path 56" class="cls-4" d="M81.223,0H50.783A2.283,2.283,0,0,0,48.5,2.283V31.962H83.506V2.283A2.283,2.283,0,0,0,81.223,0Zm0,0" transform="translate(-43.434)"/>
    <path id="Path_57" data-name="Path 57" class="cls-5" d="M81.223,0H75.135L48.5,26.635v5.327H83.506V2.283A2.283,2.283,0,0,0,81.223,0Zm0,0" transform="translate(-43.434)"/>
    <g id="Group_78" data-name="Group 78" transform="translate(7.349 2.283)">
      <path id="Path_58" data-name="Path 58" class="cls-2" d="M72.5,24h1.522v1.522H72.5Zm0,0" transform="translate(-72.5 -24)"/>
      <path id="Path_59" data-name="Path 59" class="cls-2" d="M104.5,24h1.522v1.522H104.5Zm0,0" transform="translate(-101.456 -24)"/>
      <path id="Path_60" data-name="Path 60" class="cls-2" d="M136.5,24h1.522v1.522H136.5Zm0,0" transform="translate(-130.412 -24)"/>
    </g>
    <path id="Path_61" data-name="Path 61" class="cls-6" d="M168.969,84.707l-11.9-1.475-1.757-7.869,10.139-6.395Zm0,0" transform="translate(-140.089 -62.408)"/>
    <path id="Path_62" data-name="Path 62" class="cls-7" d="M83.948,137.063l3.937-.879,1.758,7.873-3.937.879a4.033,4.033,0,0,1-1.758-7.873Zm0,0" transform="translate(-72.655 -123.229)"/>
    <path id="Path_63" data-name="Path 63" class="cls-8" d="M88.652,136.191l1.254,5.629-4.346.974a4.442,4.442,0,0,1-3.916-1.012c.007.035.01.069.018.1a4.033,4.033,0,0,0,4.813,3.056l3.934-.878Zm0,0" transform="translate(-73.425 -123.236)"/>
    <path id="Path_64" data-name="Path 64" class="cls-6" d="M124.16,223.316l3.148-.7,1.406,6.295-3.148.7Zm0,0" transform="translate(-111.897 -201.437)"/>
    <path id="Path_65" data-name="Path 65" class="cls-2" d="M336.535,122.6l3.935-.878.331,1.486-3.935.878Zm0,0" transform="translate(-304.07 -110.147)"/>
    <path id="Path_66" data-name="Path 66" class="cls-2" d="M312.5,38.963l2.283-2.283,1.077,1.076-2.283,2.283Zm0,0" transform="translate(-282.321 -33.191)"/>
    <path id="Path_67" data-name="Path 67" class="cls-2" d="M348.926,202.209l.681-1.361,3.044,1.522-.68,1.361Zm0,0" transform="translate(-315.282 -181.742)"/>
    <path id="Path_68" data-name="Path 68" class="cls-7" d="M264.542,54.029a1.612,1.612,0,0,1-1.958-1.218l-4.209-18.85a1.613,1.613,0,1,1,3.148-.7l4.21,18.852a1.614,1.614,0,0,1-1.191,1.918Zm0,0" transform="translate(-233.309 -28.953)"/>
    <path id="Path_69" data-name="Path 69" class="cls-2" d="M48.5,320H83.506v1.522H48.5Zm0,0" transform="translate(-43.434 -289.56)"/>
    <path id="Path_70" data-name="Path 70" class="cls-2" d="M416.5,64h1.522V89.874H416.5Zm0,0" transform="translate(-376.428 -57.912)"/>
    <path id="Path_71" data-name="Path 71" class="cls-8" d="M289.465,142.513l-2.37-10.611a10.459,10.459,0,0,1-2.532,3.46l1.751,7.854a1.613,1.613,0,1,0,3.148-.7Zm0,0" transform="translate(-257.041 -119.355)"/>
    <path id="Path_72" data-name="Path 72" class="cls-9" d="M168.4,171.992l.512,2.293,11.9,1.475-1.377-6.166Zm0,0" transform="translate(-151.93 -153.461)"/>
  </g>
</svg>
