<svg xmlns="http://www.w3.org/2000/svg" width="64" height="64" viewBox="0 0 64 64">
  <g id="digital-marketing-01" transform="translate(-480 -347)">
    <circle id="Ellipse_1" data-name="Ellipse 1" cx="32" cy="32" r="32" transform="translate(480 347)" fill="#3a4095"/>
    <g id="digital-marketing" transform="translate(496.5 364)">
      <path id="Path_52" data-name="Path 52" d="M154.009,388.576,152.636,384h-5.085l-1.373,4.576H144.5v1.017h11.186v-1.017Zm0,0" transform="translate(-134.847 -359.593)" fill="#d6d9db"/>
      <path id="Path_53" data-name="Path 53" d="M2.025,64A1.525,1.525,0,0,0,.5,65.525V81.288H29.992V65.525A1.525,1.525,0,0,0,28.466,64Zm0,0" transform="translate(0 -59.932)" fill="#d65a07"/>
      <path id="Path_54" data-name="Path 54" d="M.5,336v1.525a1.525,1.525,0,0,0,1.525,1.525H28.466a1.525,1.525,0,0,0,1.525-1.525V336Zm0,0" transform="translate(0 -314.644)" fill="#d6d9db"/>
      <path id="Path_55" data-name="Path 55" d="M191.3,385.525,190.847,384h-5.085l-.458,1.525Zm0,0" transform="translate(-173.056 -359.593)" fill="#c1c7c9"/>
      <path id="Path_56" data-name="Path 56" d="M70.364,0H50.025A1.525,1.525,0,0,0,48.5,1.525v19.83H71.89V1.525A1.525,1.525,0,0,0,70.364,0Zm0,0" transform="translate(-44.949)" fill="#f3a912"/>
      <path id="Path_57" data-name="Path 57" d="M70.364,0H66.3L48.5,17.8v3.559H71.89V1.525A1.525,1.525,0,0,0,70.364,0Zm0,0" transform="translate(-44.949)" fill="#f89421"/>
      <g id="Group_78" data-name="Group 78" transform="translate(5.076 1.525)">
        <path id="Path_58" data-name="Path 58" d="M72.5,24h1.017v1.017H72.5Zm0,0" transform="translate(-72.5 -24)" fill="#d65a07"/>
        <path id="Path_59" data-name="Path 59" d="M104.5,24h1.017v1.017H104.5Zm0,0" transform="translate(-102.466 -24)" fill="#d65a07"/>
        <path id="Path_60" data-name="Path 60" d="M136.5,24h1.017v1.017H136.5Zm0,0" transform="translate(-132.432 -24)" fill="#d65a07"/>
      </g>
      <path id="Path_61" data-name="Path 61" d="M164.437,79.484l-7.951-.986-1.174-5.258,6.775-4.273Zm0,0" transform="translate(-144.975 -64.585)" fill="#e0e3e6"/>
      <path id="Path_62" data-name="Path 62" d="M82.9,136.771l2.631-.587,1.175,5.26-2.631.587a2.7,2.7,0,0,1-1.175-5.26Zm0,0" transform="translate(-75.189 -127.528)" fill="#e3584b"/>
      <path id="Path_63" data-name="Path 63" d="M86.327,136.191l.838,3.761-2.9.651a2.968,2.968,0,0,1-2.617-.676c0,.023.007.046.012.067a2.7,2.7,0,0,0,3.216,2.042l2.629-.587Zm0,0" transform="translate(-75.986 -127.535)" fill="#d64740"/>
      <path id="Path_64" data-name="Path 64" d="M124.16,223.084l2.1-.468.939,4.206-2.1.468Zm0,0" transform="translate(-115.8 -208.465)" fill="#e0e3e6"/>
      <path id="Path_65" data-name="Path 65" d="M336.535,122.309l2.629-.587.221.993-2.629.587Zm0,0" transform="translate(-314.677 -113.988)" fill="#d65a07"/>
      <path id="Path_66" data-name="Path 66" d="M312.5,38.205l1.525-1.525.72.719-1.525,1.525Zm0,0" transform="translate(-292.169 -34.349)" fill="#d65a07"/>
      <path id="Path_67" data-name="Path 67" d="M348.926,201.757l.455-.909,2.034,1.017-.454.909Zm0,0" transform="translate(-326.28 -188.082)" fill="#d65a07"/>
      <path id="Path_68" data-name="Path 68" d="M262.48,46.7a1.077,1.077,0,0,1-1.308-.814L258.359,33.3a1.078,1.078,0,1,1,2.1-.468l2.813,12.6a1.078,1.078,0,0,1-.8,1.282Zm0,0" transform="translate(-241.445 -29.95)" fill="#e3584b"/>
      <path id="Path_69" data-name="Path 69" d="M48.5,320H71.89v1.017H48.5Zm0,0" transform="translate(-44.949 -299.661)" fill="#d65a07"/>
      <path id="Path_70" data-name="Path 70" d="M416.5,64h1.017V81.288H416.5Zm0,0" transform="translate(-389.559 -59.932)" fill="#d65a07"/>
      <path id="Path_71" data-name="Path 71" d="M287.838,138.992l-1.584-7.09a6.988,6.988,0,0,1-1.692,2.312l1.17,5.248a1.078,1.078,0,1,0,2.1-.468Zm0,0" transform="translate(-266.008 -123.519)" fill="#d64740"/>
      <path id="Path_72" data-name="Path 72" d="M168.4,171.2l.342,1.532,7.951.986-.92-4.12Zm0,0" transform="translate(-157.229 -158.814)" fill="#c7cacc"/>
    </g>
  </g>
</svg>
