<svg xmlns="http://www.w3.org/2000/svg" width="64" height="64" viewBox="0 0 64 64">
  <g id="payment-01" transform="translate(-662 -347)">
    <circle id="Ellipse_3" data-name="Ellipse 3" cx="32" cy="32" r="32" transform="translate(662 347)" fill="#3a4095"/>
    <g id="payment" transform="translate(676.857 356.978)">
      <rect id="Rectangle-2" width="24.206" height="16.137" rx="4" transform="translate(12.068 8)" fill="#f89421"/>
      <path id="Rectangle-2-Copy" d="M2.391,0H21.815a2.391,2.391,0,0,1,2.391,2.391V13.746a2.391,2.391,0,0,1-2.391,2.391H2.391A2.391,2.391,0,0,1,0,13.746V2.391A2.391,2.391,0,0,1,2.391,0Z" transform="translate(4 18.551)" fill="#f89421"/>
      <path id="Rectangle" d="M0,0H24.206V3.724H0Z" transform="translate(12.068 11.724)" fill="#d65a07"/>
      <path id="Combined-Shape" d="M19,35.735a3.393,3.393,0,0,1-1.729.468,3.109,3.109,0,1,1,0-6.207A3.393,3.393,0,0,1,19,30.464a3.654,3.654,0,0,0,0,5.271Zm3.511.468a3.109,3.109,0,1,1,3.276-3.1A3.193,3.193,0,0,1,22.51,36.2Z" transform="translate(-3.786 -8.341)" fill="#d65a07" fill-rule="evenodd"/>
      <path id="Combined-Shape-2" data-name="Combined-Shape" d="M14.483,46.242H12V45h2.483Zm3.724,0H15.724V45h2.483Zm4.965,0H20.689V45h2.483Zm3.724,0H24.413V45H26.9Z" transform="translate(-3.035 -14.035)" fill="#d65a07" fill-rule="evenodd"/>
    </g>
  </g>
</svg>
