<svg xmlns="http://www.w3.org/2000/svg" xmlns:xlink="http://www.w3.org/1999/xlink" width="64" height="64" viewBox="0 0 64 64">
  <defs>
    <linearGradient id="linear-gradient" x1="0.107" y1="0.802" x2="0.827" gradientUnits="objectBoundingBox">
      <stop offset="0" stop-color="#fb0"/>
      <stop offset="1" stop-color="#e59327"/>
    </linearGradient>
  </defs>
  <g id="web-developemt-01" transform="translate(-848 -347)">
    <circle id="Ellipse_5" data-name="Ellipse 5" cx="32" cy="32" r="32" transform="translate(848 347)" fill="#3a4095"/>
    <g id="web_development" transform="translate(864.922 366.651)">
      <path id="Path_26" data-name="Path 26" d="M17.648,38h9.075l.648,3.241H17Z" transform="translate(-5.98 -15.312)" fill="#d65a07" fill-rule="evenodd"/>
      <path id="Path_27" data-name="Path 27" d="M11.02,28.927H21.392l.491,1.965a.48.48,0,0,1-.487.628H11.015a.478.478,0,0,1-.487-.628Zm21.392-5.185a1.942,1.942,0,0,1-1.945,1.944H1.945A1.948,1.948,0,0,1,0,23.744V4.944A1.942,1.942,0,0,1,1.945,3h28.52a1.948,1.948,0,0,1,1.945,1.944Z" transform="translate(0 -3)" fill="#d97c10" fill-rule="evenodd"/>
      <path id="Path_28" data-name="Path 28" d="M29.818,27.1H1.945A1.948,1.948,0,0,1,0,25.151V7.173A1.287,1.287,0,0,1,.646,7H28.524a1.292,1.292,0,0,1,1.295,1.3Z" transform="translate(0 -4.407)" fill-rule="evenodd" fill="url(#linear-gradient)"/>
    </g>
  </g>
</svg>
